<?xml version="1.0" encoding="UTF-8"?>
<svg xmlns="http://www.w3.org/2000/svg" width="680" height="220" viewBox="0 0 680 220" role="img" aria-label="모시다 로고">
  <defs>
    <linearGradient id="m1" x1="0" y1="0" x2="1" y2="1">
      <stop offset="0%" stop-color="#2F80ED"/>
      <stop offset="100%" stop-color="#4FA66A"/>
    </linearGradient>
    <linearGradient id="m2" x1="0" y1="1" x2="1" y2="0">
      <stop offset="0%" stop-color="#7AC7A8"/>
      <stop offset="100%" stop-color="#A7D96C"/>
    </linearGradient>
  </defs>
  <rect width="680" height="220" fill="white"/>
  <g transform="translate(58 36)">
    <path d="M84 36 C102 14, 140 18, 150 52 C160 90, 124 119, 84 145 C44 119, 8 90, 18 52 C28 18, 66 14, 84 36Z" fill="url(#m1)"/>
    <path d="M84 48 C101 31, 129 34, 137 60 C145 87, 116 111, 84 132 C52 111, 23 87, 31 60 C39 34, 67 31, 84 48Z" fill="white" opacity=".18"/>
    <path d="M55 81 C73 65, 91 65, 109 81" fill="none" stroke="white" stroke-width="10" stroke-linecap="round"/>
    <circle cx="55" cy="78" r="9" fill="white"/>
    <circle cx="109" cy="78" r="9" fill="white"/>
    <path d="M86 94 L126 54 C144 72, 142 103, 119 126 C108 137, 96 145, 84 152 C73 146, 60 138, 50 128 L86 94Z" fill="url(#m2)" opacity=".88"/>
  </g>
  <text x="270" y="111" font-family="'Pretendard','Noto Sans KR','Noto Sans CJK KR','Apple SD Gothic Neo','Malgun Gothic',sans-serif" font-size="68" font-weight="800" fill="#263238" letter-spacing="-4">모시다</text>
  <text x="274" y="151" font-family="'Pretendard','Noto Sans KR','Noto Sans CJK KR','Apple SD Gothic Neo','Malgun Gothic',sans-serif" font-size="22" font-weight="500" fill="#5F6F7A" letter-spacing="-1">시니어 돌봄 정보 플랫폼</text>
</svg>