<?xml version="1.0" encoding="UTF-8"?>
<svg xmlns="http://www.w3.org/2000/svg" width="680" height="220" viewBox="0 0 680 220" role="img" aria-label="세컨드링크 Second Link 로고">
  <defs>
    <linearGradient id="s1" x1="0" y1="0" x2="1" y2="1">
      <stop offset="0%" stop-color="#2F80ED"/>
      <stop offset="100%" stop-color="#7AC943"/>
    </linearGradient>
  </defs>
  <rect width="680" height="220" fill="white"/>
  <g transform="translate(56 40)">
    <circle cx="84" cy="70" r="58" fill="none" stroke="#EAF3FF" stroke-width="18"/>
    <path d="M48 56 C48 27, 82 16, 108 34 C129 48, 125 73, 103 80 L70 91 C47 99, 43 126, 65 141 C91 159, 128 147, 128 116" fill="none" stroke="#2F80ED" stroke-width="20" stroke-linecap="round"/>
    <path d="M120 84 C145 77, 154 50, 132 31 C107 10, 67 19, 56 49" fill="none" stroke="#4FA66A" stroke-width="20" stroke-linecap="round"/>
    <path d="M48 117 C39 145, 73 166, 103 153 C119 146, 129 134, 130 116" fill="none" stroke="#7AC943" stroke-width="20" stroke-linecap="round"/>
    <circle cx="48" cy="56" r="8" fill="#2F80ED"/>
    <circle cx="128" cy="116" r="8" fill="#7AC943"/>
  </g>
  <text x="260" y="102" font-family="'Pretendard','Noto Sans KR','Noto Sans CJK KR','Apple SD Gothic Neo','Malgun Gothic',sans-serif" font-size="52" font-weight="800" fill="#263238" letter-spacing="-1">Second Link</text>
  <text x="263" y="143" font-family="'Pretendard','Noto Sans KR','Noto Sans CJK KR','Apple SD Gothic Neo','Malgun Gothic',sans-serif" font-size="26" font-weight="700" fill="#2F80ED" letter-spacing="-1">세컨드링크</text>
</svg>