<svg xmlns="http://www.w3.org/2000/svg" viewBox="0 0 128 128">
  <!-- 왼쪽 어른 -->
  <circle cx="30" cy="42" r="13" fill="#AFA9EC"/>
  <path fill="#AFA9EC" d="M10 100v-4c0-11 8.5-20 20-20s20 9 20 20v4z"/>
  <!-- 오른쪽 어른 -->
  <circle cx="98" cy="42" r="13" fill="#7F77DD"/>
  <path fill="#7F77DD" d="M78 100v-4c0-11 8.5-20 20-20s20 9 20 20v4z"/>
  <!-- 가운데 아이 -->
  <circle cx="64" cy="52" r="16" fill="#534AB7"/>
  <path fill="#534AB7" d="M42 108v-4c0-12 9.8-22 22-22s22 10 22 22v4z"/>
  <!-- 하트 연결 -->
  <path fill="#ED93B1" d="M64 34c-4-3-10-1-10 5 0 4 4 7 10 11 6-4 10-7 10-11 0-6-6-8-10-5z"/>
</svg>
