<svg xmlns="http://www.w3.org/2000/svg" viewBox="0 0 128 128">
  <!-- 뒤 말풍선 (고민) -->
  <path fill="#FFC89E" d="M40 18h42c9.9 0 18 8.1 18 18v14c0 9.9-8.1 18-18 18H46l-17.5 14.6c-1.9 1.6-4.5.2-4.5-2.2V36c0-9.9 7.2-18 16-18z"/>
  <circle cx="47" cy="43" r="4.5" fill="#E05526"/>
  <circle cx="61" cy="43" r="4.5" fill="#E05526"/>
  <circle cx="75" cy="43" r="4.5" fill="#E05526"/>
  <!-- 앞 말풍선 (위로/공감) -->
  <path fill="#F2752B" d="M38 78c0-9.9 8.1-18 18-18h40c9.9 0 18 8.1 18 18v8c0 9.9-8.1 18-18 18h-3.3l9.8 11.7c1.4 1.7-.5 4.1-2.5 3.1L78 104H56c-9.9 0-18-8.1-18-18z"/>
  <!-- 하트 -->
  <path fill="#FFF1E4" d="M75 95c-8-5-14-10.5-14-16.6 0-4.4 3.4-7.4 7.2-7.4 2.9 0 5.3 1.7 6.8 4.2 1.5-2.5 3.9-4.2 6.8-4.2 3.8 0 7.2 3 7.2 7.4 0 6.1-6 11.6-14 16.6z"/>
</svg>
