<svg xmlns="http://www.w3.org/2000/svg" viewBox="0 0 128 128">
  <!-- 두 손 받치기 -->
  <path fill="#F4C0D1" d="M22 90c-3.9-2.9-2.2-9 2.6-9.6 1.4-.2 2.8.2 4 1 9.3 6.4 21.8 10.2 35.4 10.2s26.1-3.8 35.4-10.2c1.2-.8 2.6-1.2 4-1 4.8.6 6.5 6.7 2.6 9.6C95.1 98.1 80.3 103 64 103s-31.1-4.9-42-13z"/>
  <circle cx="25.5" cy="85.5" r="6" fill="#F4C0D1"/>
  <circle cx="102.5" cy="85.5" r="6" fill="#F4C0D1"/>
  <!-- 하트 큰 -->
  <path fill="#D4537E" d="M64 76C64 76 28 54 28 32c0-12 9-20 20-20 8 0 14 4 16 10 2-6 8-10 16-10 11 0 20 8 20 20 0 22-36 44-36 44z"/>
  <!-- 하트 내부 작은 하트 -->
  <path fill="#F4C0D1" d="M64 60C64 60 46 49 46 38c0-6 4-10 9-10 3 0 6 2 9 6 3-4 6-6 9-6 5 0 9 4 9 10 0 11-18 22-18 22z"/>
</svg>
