<svg xmlns="http://www.w3.org/2000/svg" viewBox="0 0 128 128">
  <!-- 큰 손 (감싸는 손) -->
  <path fill="#F5C4B3" d="M16 70 Q12 50 24 40 Q34 32 44 38 L64 52 L84 38 Q94 32 104 40 Q116 50 112 70 Q108 90 88 100 L64 110 L40 100 Q20 90 16 70z"/>
  <!-- 손 안쪽 -->
  <path fill="#FAECE7" d="M26 68 Q24 52 32 46 Q40 40 48 46 L64 58 L80 46 Q88 40 96 46 Q104 52 102 68 Q98 84 80 94 L64 102 L48 94 Q30 84 26 68z"/>
  <!-- 부모님 실루엣 -->
  <circle cx="52" cy="62" r="9" fill="#D85A30"/>
  <path fill="#D85A30" d="M38 84v-4c0-8 6.3-14 14-14s14 6 14 14v4z"/>
  <circle cx="76" cy="62" r="9" fill="#993C1D"/>
  <path fill="#993C1D" d="M62 84v-4c0-8 6.3-14 14-14s14 6 14 14v4z"/>
  <!-- 하트 -->
  <path fill="#E24B4A" d="M64 44c-3-2-7-1-7 3.5 0 3 3 5 7 8 4-3 7-5 7-8 0-4.5-4-5.5-7-3.5z"/>
</svg>
