<svg xmlns="http://www.w3.org/2000/svg" viewBox="0 0 128 128">
  <!-- 말풍선 -->
  <path fill="#2BAB5E" d="M64 12C35.3 12 12 31.9 12 56.5c0 14.6 8.2 27.6 21 35.7-1 5.5-3.6 11.3-8.6 15.9-1.3 1.2-.3 3.4 1.5 3.2 9.8-1.2 17.8-5.6 23.4-10.2 4.7 1.1 9.6 1.7 14.7 1.7 28.7 0 52-19.9 52-44.5S92.7 12 64 12z"/>
  <!-- 햇살 -->
  <g stroke="#C7F0D0" stroke-width="6" stroke-linecap="round">
    <line x1="64" y1="25" x2="64" y2="32"/>
    <line x1="64" y1="81" x2="64" y2="88"/>
    <line x1="36" y1="56.5" x2="43" y2="56.5"/>
    <line x1="85" y1="56.5" x2="92" y2="56.5"/>
    <line x1="44.2" y1="36.7" x2="49.2" y2="41.7"/>
    <line x1="78.8" y1="71.3" x2="83.8" y2="76.3"/>
    <line x1="83.8" y1="36.7" x2="78.8" y2="41.7"/>
    <line x1="49.2" y1="71.3" x2="44.2" y2="76.3"/>
  </g>
  <!-- 해 -->
  <circle cx="64" cy="56.5" r="16" fill="#58C858"/>
  <circle cx="58" cy="50.5" r="4.5" fill="#84E884"/>
</svg>
