<svg xmlns="http://www.w3.org/2000/svg" viewBox="0 0 128 128">
  <!-- 별 -->
  <path fill="#38A4FF" d="M64 18l6.8 16.7 17.9 1.3-13.8 11.6 4.4 17.4L64 55.5 48.7 65l4.4-17.4-13.8-11.6 17.9-1.3z"/>
  <!-- 반짝임 -->
  <path fill="#2B75F2" d="M99 16l2.2 5 5 2.2-5 2.2-2.2 5-2.2-5-5-2.2 5-2.2z"/>
  <path fill="#9EC8FF" d="M28 28l1.8 4 4 1.8-4 1.8-1.8 4-1.8-4-4-1.8 4-1.8z"/>
  <!-- 받치는 두 손 -->
  <path fill="#2B75F2" d="M22 90c-3.9-2.9-2.2-9 2.6-9.6 1.4-.2 2.8.2 4 1 9.3 6.4 21.8 10.2 35.4 10.2s26.1-3.8 35.4-10.2c1.2-.8 2.6-1.2 4-1 4.8.6 6.5 6.7 2.6 9.6-10.9 8.1-25.7 13-42 13s-31.1-4.9-42-13z"/>
  <circle cx="25.5" cy="85.5" r="6" fill="#2B75F2"/>
  <circle cx="102.5" cy="85.5" r="6" fill="#2B75F2"/>
</svg>
