<svg xmlns="http://www.w3.org/2000/svg" viewBox="0 0 128 128">
  <!-- 손잡이 -->
  <path d="M47 46V36c0-9.4 7.6-17 17-17s17 7.6 17 17v10" fill="none" stroke="#B8491F" stroke-width="7" stroke-linecap="round"/>
  <!-- 가방 -->
  <path fill="#F2752B" d="M30.5 42h67c3.1 0 5.7 2.4 6 5.5l4.7 52c.6 6.4-4.5 11.5-10.9 11.5H30.7c-6.4 0-11.5-5.1-10.9-11.5l4.7-52c.3-3.1 2.9-5.5 6-5.5z"/>
  <!-- 순환 화살표 -->
  <g stroke="#FFF1E4" stroke-width="6" stroke-linecap="round" fill="none">
    <path d="M51.2 69.8A14.5 14.5 0 0 1 77.5 72"/>
    <path d="M76.8 84.2A14.5 14.5 0 0 1 50.5 82"/>
  </g>
  <path fill="#FFF1E4" d="M84.5 63.5l-1.2 13.8-11.5-7.8z"/>
  <path fill="#FFF1E4" d="M43.5 90.5l1.2-13.8 11.5 7.8z"/>
</svg>
